<?xml version="1.0" standalone="no"?>
<!DOCTYPE svg PUBLIC "-//W3C//DTD SVG 20010904//EN"
 "http://www.w3.org/TR/2001/REC-SVG-20010904/DTD/svg10.dtd">
<svg version="1.0" xmlns="http://www.w3.org/2000/svg"
 width="500.000000pt" height="500.000000pt" viewBox="0 0 500.000000 500.000000"
 preserveAspectRatio="xMidYMid meet">

<g transform="translate(0.000000,500.000000) scale(0.100000,-0.100000)"
fill="#000000" stroke="none">
<path d="M1930 2690 l0 -510 105 0 105 0 0 510 0 510 -105 0 -105 0 0 -510z"/>
<path d="M578 3144 c-73 -39 -76 -159 -6 -208 36 -26 111 -21 147 10 86 72 38
215 -72 214 -23 -1 -54 -7 -69 -16z"/>
<path d="M1634 3127 c-3 -8 -4 -51 -2 -97 l3 -84 47 -3 c37 -3 52 1 68 17 51
51 -2 144 -67 119 -21 -8 -23 -6 -23 26 0 35 -16 48 -26 22z m108 -92 c9 -19
8 -29 -6 -50 -19 -29 -38 -32 -60 -9 -19 18 -21 55 -4 72 21 21 57 14 70 -13z"/>
<path d="M1338 3078 c-18 -6 -31 -21 -39 -45 -10 -31 -9 -39 8 -62 22 -29 75
-40 99 -21 20 17 7 32 -16 18 -23 -15 -70 3 -70 27 0 12 12 15 55 15 30 0 55
2 55 5 0 2 -5 15 -11 28 -15 33 -47 46 -81 35z m52 -33 c11 -13 7 -15 -30 -15
-37 0 -41 2 -30 15 7 8 20 15 30 15 10 0 23 -7 30 -15z"/>
<path d="M910 3069 c0 -27 44 -129 54 -126 6 2 15 18 20 35 12 41 19 40 35 -4
7 -19 18 -33 24 -31 11 3 45 90 46 120 2 31 -17 18 -30 -20 -18 -57 -22 -60
-34 -23 -16 47 -31 48 -46 3 l-12 -38 -20 48 c-18 44 -37 62 -37 36z"/>
<path d="M1203 2800 c-92 -19 -174 -86 -217 -179 -31 -67 -30 -206 2 -276 41
-89 119 -155 207 -175 73 -17 143 -5 209 35 l56 34 0 -30 0 -29 105 0 105 0 0
305 0 305 -105 0 -105 0 0 -25 c0 -28 -12 -32 -30 -11 -29 36 -153 60 -227 46z
m184 -191 c138 -67 77 -281 -76 -266 -81 9 -137 76 -127 155 7 57 32 91 81
113 52 24 69 24 122 -2z"/>
<path d="M3469 2800 c-62 -11 -104 -34 -155 -86 -64 -66 -87 -136 -82 -249 5
-98 22 -145 79 -209 38 -44 118 -83 185 -92 67 -8 152 16 199 57 l35 31 0 -36
0 -36 105 0 105 0 -2 303 -3 302 -102 3 -103 3 0 -26 c0 -15 -3 -25 -7 -23
-115 59 -173 72 -254 58z m199 -196 c35 -23 62 -74 62 -119 0 -104 -111 -174
-203 -130 -111 52 -99 230 18 265 37 11 92 4 123 -16z"/>
<path d="M537 2783 c-4 -3 -7 -163 -7 -355 0 -335 -1 -349 -20 -368 -23 -23
-29 -24 -64 -11 -24 10 -26 7 -55 -70 -17 -45 -29 -85 -26 -90 18 -28 182 -41
247 -20 46 15 103 78 117 128 7 24 11 180 11 416 l0 377 -98 0 c-54 0 -102 -3
-105 -7z"/>
<path d="M2310 2786 c0 -3 73 -140 161 -305 l161 -301 72 0 71 0 100 187 c55
103 128 240 163 305 l63 118 -124 0 -124 0 -73 -162 c-40 -90 -74 -164 -75
-166 -1 -1 -36 72 -76 163 l-74 165 -122 0 c-68 0 -123 -2 -123 -4z"/>
<path d="M4239 2391 c-34 -34 -39 -44 -39 -86 0 -59 28 -107 74 -129 42 -20
67 -20 110 -2 73 30 102 107 67 178 -26 54 -65 78 -126 78 -42 0 -52 -5 -86
-39z"/>
<path d="M2100 2025 c0 -33 -2 -35 -20 -25 -23 12 -53 6 -75 -16 -21 -22 -19
-87 3 -107 22 -20 63 -22 80 -5 9 9 12 9 12 0 0 -7 5 -12 10 -12 6 0 10 40 10
100 0 60 -4 100 -10 100 -5 0 -10 -16 -10 -35z m-7 -66 c13 -21 1 -65 -19 -73
-44 -17 -78 30 -54 74 13 25 57 25 73 -1z"/>
<path d="M3350 1960 c0 -77 3 -101 13 -97 8 2 12 31 12 97 0 66 -4 95 -12 98
-10 3 -13 -21 -13 -98z"/>
<path d="M2366 1989 c-35 -27 -37 -90 -4 -113 36 -25 98 -18 98 10 0 11 -4 12
-19 4 -28 -14 -47 -13 -65 6 -24 24 -10 34 45 34 57 0 64 16 24 55 -29 30 -45
31 -79 4z m72 -26 c2 -9 -9 -13 -38 -13 -37 0 -41 2 -30 16 15 17 61 15 68 -3z"/>
<path d="M3025 1985 c-30 -30 -32 -64 -4 -99 23 -29 78 -36 98 -13 16 20 4 26
-29 14 -22 -8 -32 -8 -44 2 -32 27 -19 41 39 41 30 0 55 2 55 5 0 20 -33 63
-52 69 -34 9 -37 8 -63 -19z m75 -20 c11 -13 7 -15 -29 -15 -38 0 -50 8 -34
23 12 12 50 7 63 -8z"/>
<path d="M3615 1985 c-48 -47 -20 -125 45 -125 67 0 96 88 44 129 -35 27 -59
26 -89 -4z m87 -30 c9 -19 8 -29 -6 -50 -21 -31 -51 -32 -71 -1 -24 36 -5 76
35 76 23 0 33 -6 42 -25z"/>
<path d="M3991 2001 c-7 -5 -22 -6 -32 -4 -18 5 -19 -1 -19 -91 0 -79 3 -96
15 -96 10 0 15 10 15 29 0 28 2 29 34 24 68 -11 103 71 51 122 -25 26 -41 30
-64 16z m60 -47 c7 -20 6 -32 -6 -50 -27 -42 -75 -25 -75 26 0 53 62 72 81 24z"/>
<path d="M4306 1997 c-29 -21 -17 -58 23 -72 19 -6 37 -17 39 -23 6 -18 -26
-26 -55 -13 -32 15 -45 4 -19 -15 26 -18 70 -18 86 1 19 23 7 49 -33 68 -20 9
-37 21 -37 26 0 15 23 19 49 9 31 -11 41 0 17 18 -25 17 -47 18 -70 1z"/>
<path d="M2676 1978 c9 -31 53 -118 59 -118 6 0 50 87 59 118 14 42 -14 23
-36 -25 l-21 -48 -21 47 c-22 49 -54 69 -40 26z"/>
</g>
</svg>
